<svg width="19" height="19" viewBox="0 0 19 19" fill="none" xmlns="http://www.w3.org/2000/svg">
<path d="M18.554 15.9938L15.9938 18.554C15.4282 19.1196 14.5112 19.1196 13.9456 18.554L9.84924 14.4576L5.7529 18.554C5.18731 19.1196 4.27032 19.1196 3.70473 18.554L1.14451 15.9938C0.578928 15.4282 0.578928 14.5112 1.14451 13.9456L5.24086 9.84924L1.14451 5.7529C0.578928 5.18731 0.578929 4.27031 1.14452 3.70473L3.70473 1.14451C4.27032 0.578927 5.18731 0.578927 5.7529 1.14451L9.84924 5.24086L13.9456 1.14451C14.5112 0.578927 15.4282 0.578927 15.9938 1.14451L18.554 3.70473C19.1196 4.27031 19.1196 5.18731 18.554 5.7529L14.4576 9.84924L18.554 13.9456C19.1196 14.5112 19.1196 15.4282 18.554 15.9938Z" fill="white"/>
</svg>
