<svg width="14" height="14" viewBox="0 0 14 14" fill="none" xmlns="http://www.w3.org/2000/svg">
<path d="M13.9612 4.55636C14.054 4.7943 13.9757 5.05958 13.7755 5.22915L12.5193 6.3067C12.5513 6.5337 12.5687 6.76617 12.5687 7.00137C12.5687 7.23657 12.5513 7.46904 12.5193 7.69603L13.7755 8.77359C13.9757 8.94315 14.054 9.20844 13.9612 9.44638C13.8335 9.77183 13.6798 10.0836 13.5028 10.3845L13.3665 10.606C13.175 10.9068 12.9603 11.1912 12.7253 11.4593C12.5542 11.6562 12.2698 11.7218 12.0146 11.6452L10.3986 11.1612C10.0099 11.4429 9.58053 11.6781 9.12216 11.8558L8.75952 13.4175C8.7015 13.6663 8.49842 13.8633 8.23152 13.9043C7.83117 13.9672 7.41921 14 6.99855 14C6.57789 14 6.16593 13.9672 5.76558 13.9043C5.49868 13.8633 5.2956 13.6663 5.23758 13.4175L4.87494 11.8558C4.41657 11.6781 3.98721 11.4429 3.59846 11.1612L1.98545 11.648C1.73015 11.7246 1.44584 11.6562 1.27468 11.462C1.03969 11.194 0.825008 10.9096 0.633535 10.6087L0.497184 10.3872C0.320216 10.0863 0.166458 9.77457 0.0388097 9.44911C-0.0540255 9.21117 0.0243042 8.94589 0.22448 8.77632L1.48066 7.69877C1.44874 7.46904 1.43134 7.23657 1.43134 7.00137C1.43134 6.76617 1.44874 6.5337 1.48066 6.3067L0.22448 5.22915C0.0243042 5.05958 -0.0540255 4.7943 0.0388097 4.55636C0.166458 4.2309 0.320216 3.91912 0.497184 3.61828L0.633535 3.39676C0.825008 3.09592 1.03969 2.81149 1.27468 2.54347C1.44584 2.34655 1.73015 2.28091 1.98545 2.35749L3.60136 2.84157C3.99011 2.55988 4.41947 2.32467 4.87785 2.1469L5.24048 0.585271C5.2985 0.336394 5.50158 0.13948 5.76848 0.0984567C6.16883 0.0328189 6.58079 0 7.00145 0C7.42211 0 7.83407 0.0328189 8.23442 0.0957218C8.50132 0.136745 8.7044 0.333659 8.76242 0.582536L9.12506 2.14417C9.58343 2.32194 10.0128 2.55714 10.4015 2.83884L12.0175 2.35476C12.2728 2.27818 12.5571 2.34655 12.7282 2.54073C12.9632 2.80875 13.1779 3.09318 13.3694 3.39402L13.5057 3.61555C13.6827 3.91639 13.8364 4.22817 13.9641 4.55362L13.9612 4.55636ZM7.00145 9.18929C7.61699 9.18929 8.20731 8.95878 8.64256 8.54847C9.07781 8.13815 9.32233 7.58164 9.32233 7.00137C9.32233 6.42109 9.07781 5.86459 8.64256 5.45427C8.20731 5.04395 7.61699 4.81344 7.00145 4.81344C6.38591 4.81344 5.79559 5.04395 5.36034 5.45427C4.92509 5.86459 4.68057 6.42109 4.68057 7.00137C4.68057 7.58164 4.92509 8.13815 5.36034 8.54847C5.79559 8.95878 6.38591 9.18929 7.00145 9.18929Z" fill="white" fill-opacity="0.8"/>
</svg>
