<svg width="35" height="26" viewBox="0 0 35 26" fill="none" xmlns="http://www.w3.org/2000/svg">
<path d="M13.9976 25.5771C13.3036 25.8828 12.4993 25.738 11.9472 25.2071L0.591448 14.2673C0.212921 13.9053 0 13.3985 0 12.8676C0 12.3367 0.212921 11.83 0.591448 11.468L11.9472 0.528197C12.4993 -0.00270541 13.3036 -0.147497 13.9976 0.158174C14.6916 0.463845 15.1411 1.16367 15.1411 1.92785L15.1411 7.71951L32.4765 7.7195C33.8723 7.7195 35 8.86979 35 10.2936V15.4417C35 16.8655 33.8723 18.0158 32.4765 18.0158L15.1411 18.0158L15.1411 23.8074C15.1411 24.5797 14.6916 25.2714 13.9976 25.5771Z" fill="white"/>
</svg>
