<svg width="35" height="26" viewBox="0 0 35 26" fill="none" xmlns="http://www.w3.org/2000/svg">
<path d="M21.0024 0.158114C21.6964 -0.147556 22.5007 -0.00276457 23.0528 0.528137L34.4086 11.4679C34.7871 11.8299 35 12.3367 35 12.8676C35 13.3985 34.7871 13.9053 34.4086 14.2672L23.0528 25.207C22.5007 25.7379 21.6964 25.8827 21.0024 25.5771C20.3084 25.2714 19.8589 24.5716 19.8589 23.8074L19.8589 18.0157L2.52351 18.0157C1.12769 18.0157 -3.90594e-07 16.8654 -2.66123e-07 15.4417L1.83942e-07 10.2935C3.08413e-07 8.86973 1.12769 7.71944 2.52351 7.71944L19.8589 7.71944L19.8589 1.92779C19.8589 1.15557 20.3084 0.463785 21.0024 0.158114Z" fill="white"/>
</svg>
