<svg width="21" height="21" viewBox="0 0 21 21" fill="none" xmlns="http://www.w3.org/2000/svg">
<path d="M20.9418 6.83454C21.081 7.19144 20.9635 7.58937 20.6633 7.84372L18.779 9.46005C18.8269 9.80055 18.853 10.1492 18.853 10.5021C18.853 10.8549 18.8269 11.2036 18.779 11.5441L20.6633 13.1604C20.9635 13.4147 21.081 13.8127 20.9418 14.1696C20.7503 14.6577 20.5197 15.1254 20.2542 15.5767L20.0497 15.909C19.7625 16.3602 19.4405 16.7869 19.088 17.1889C18.8312 17.4843 18.4048 17.5827 18.0218 17.4679L15.598 16.7417C15.0148 17.1643 14.3708 17.5171 13.6832 17.7837L13.1393 20.1262C13.0522 20.4995 12.7476 20.7949 12.3473 20.8564C11.7467 20.9508 11.1288 21 10.4978 21C9.86683 21 9.2489 20.9508 8.64837 20.8564C8.24802 20.7949 7.94341 20.4995 7.85637 20.1262L7.31242 17.7837C6.62485 17.5171 5.98081 17.1643 5.39769 16.7417L2.97817 17.472C2.59523 17.5868 2.16876 17.4843 1.91202 17.193C1.55953 16.791 1.23751 16.3643 0.950303 15.9131L0.745775 15.5808C0.480325 15.1295 0.249687 14.6618 0.0582145 14.1737C-0.0810383 13.8168 0.0364562 13.4188 0.33672 13.1645L2.22098 11.5482C2.17312 11.2036 2.14701 10.8549 2.14701 10.5021C2.14701 10.1492 2.17312 9.80055 2.22098 9.46005L0.33672 7.84372C0.0364562 7.58937 -0.0810383 7.19144 0.0582145 6.83454C0.249687 6.34636 0.480325 5.87869 0.745775 5.42743L0.950303 5.09514C1.23751 4.64388 1.55953 4.21723 1.91202 3.8152C2.16876 3.51983 2.59523 3.42137 2.97817 3.53624L5.40204 4.26236C5.98516 3.83981 6.62921 3.48701 7.31677 3.22036L7.86072 0.877906C7.94776 0.504591 8.25237 0.209221 8.65272 0.147685C9.25325 0.0492284 9.87119 0 10.5022 0C11.1332 0 11.7511 0.0492284 12.3516 0.143583C12.752 0.205118 13.0566 0.500488 13.1436 0.873803L13.6876 3.21625C14.3751 3.48291 15.0192 3.83571 15.6023 4.25825L18.0262 3.53214C18.4091 3.41727 18.8356 3.51983 19.0923 3.8111C19.4448 4.21313 19.7668 4.63977 20.054 5.09103L20.2586 5.42332C20.524 5.87458 20.7547 6.34225 20.9461 6.83044L20.9418 6.83454ZM10.5022 13.7839C11.4255 13.7839 12.311 13.4382 12.9638 12.8227C13.6167 12.2072 13.9835 11.3725 13.9835 10.5021C13.9835 9.63164 13.6167 8.79688 12.9638 8.1814C12.311 7.56593 11.4255 7.22016 10.5022 7.22016C9.57887 7.22016 8.69338 7.56593 8.04051 8.1814C7.38764 8.79688 7.02086 9.63164 7.02086 10.5021C7.02086 11.3725 7.38764 12.2072 8.04051 12.8227C8.69338 13.4382 9.57887 13.7839 10.5022 13.7839Z" fill="white"/>
</svg>
