<svg width="35" height="30" viewBox="0 0 35 30" fill="none" xmlns="http://www.w3.org/2000/svg">
<path d="M30.3692 4.8815C33.1908 7.17314 35 10.6692 35 14.5819C35 18.4946 33.1908 21.9907 30.3692 24.2823C29.6965 24.8292 28.7103 24.725 28.1616 24.0544C27.613 23.3839 27.7175 22.4008 28.3902 21.8539C30.5129 20.1352 31.8649 17.5181 31.8649 14.5819C31.8649 11.6457 30.5129 9.02858 28.3902 7.30335C27.7175 6.75648 27.6195 5.77342 28.1616 5.10285C28.7037 4.43229 29.6965 4.33463 30.3692 4.87499V4.8815ZM26.4177 9.7317C27.822 10.8775 28.7298 12.6223 28.7298 14.5819C28.7298 16.5415 27.822 18.2863 26.4177 19.4321C25.745 19.979 24.7587 19.8748 24.2101 19.2042C23.6615 18.5337 23.766 17.5506 24.4387 17.0037C25.1441 16.4308 25.5948 15.5584 25.5948 14.5819C25.5948 13.6053 25.1441 12.733 24.4387 12.1535C23.766 11.6067 23.668 10.6236 24.2101 9.95305C24.7522 9.28249 25.745 9.18483 26.4177 9.72519V9.7317ZM19.6661 0.181043C20.4172 0.51958 20.9005 1.26176 20.9005 2.08206V27.0817C20.9005 27.902 20.4172 28.6442 19.6661 28.9827C18.915 29.3213 18.0332 29.1846 17.4193 28.6377L8.6084 20.8318H4.1801C1.87451 20.8318 0 18.9633 0 16.6652V12.4986C0 10.2004 1.87451 8.33198 4.1801 8.33198H8.6084L17.4193 0.526091C18.0332 -0.0207772 18.915 -0.150984 19.6661 0.181043Z" fill="white" fill-opacity="0.4"/>
</svg>
