<svg width="18" height="15" viewBox="0 0 18 15" fill="none" xmlns="http://www.w3.org/2000/svg">
<path d="M15.6185 2.51049C17.0696 3.68904 18 5.48701 18 7.49926C18 9.51151 17.0696 11.3095 15.6185 12.488C15.2725 12.7693 14.7653 12.7157 14.4831 12.3708C14.201 12.026 14.2547 11.5204 14.6007 11.2392C15.6924 10.3553 16.3877 9.00929 16.3877 7.49926C16.3877 5.98924 15.6924 4.64327 14.6007 3.75601C14.2547 3.47476 14.2043 2.96919 14.4831 2.62432C14.7619 2.27946 15.2725 2.22924 15.6185 2.50714V2.51049ZM13.5863 5.00487C14.3084 5.59415 14.7753 6.49146 14.7753 7.49926C14.7753 8.50706 14.3084 9.40437 13.5863 9.99365C13.2403 10.2749 12.7331 10.2213 12.4509 9.87646C12.1688 9.5316 12.2225 9.02603 12.5685 8.74478C12.9313 8.45014 13.163 8.00149 13.163 7.49926C13.163 6.99704 12.9313 6.54838 12.5685 6.25039C12.2225 5.96915 12.1721 5.46357 12.4509 5.11871C12.7297 4.77385 13.2403 4.72363 13.5863 5.00153V5.00487ZM10.114 0.0931079C10.5003 0.267213 10.7488 0.648904 10.7488 1.07077V13.9277C10.7488 14.3496 10.5003 14.7313 10.114 14.9054C9.7277 15.0795 9.27423 15.0092 8.95848 14.728L4.42718 10.7135H2.14977C0.964036 10.7135 0 9.75258 0 8.57067V6.42785C0 5.24594 0.964036 4.28502 2.14977 4.28502H4.42718L8.95848 0.270561C9.27423 -0.0106854 9.7277 -0.0776488 10.114 0.0931079Z" fill="#5CBAEF"/>
</svg>
